<svg width="32" height="32" viewBox="0 0 32 32" fill="none" xmlns="http://www.w3.org/2000/svg">
<path fill-rule="evenodd" clip-rule="evenodd" d="M15 5.04484C9.3935 5.55007 5 10.262 5 16C5 22.0751 9.92487 27 16 27C21.738 27 26.4499 22.6065 26.9552 17H22C21.4477 17 21 16.5523 21 16V11H16C15.4477 11 15 10.5523 15 10V5.04484ZM3 16C3 8.8203 8.8203 3 16 3C16.2652 3 16.5196 3.10536 16.7071 3.29289C16.8946 3.48043 17 3.73478 17 4V9H22C22.5523 9 23 9.44772 23 10V15H28C28.2652 15 28.5196 15.1054 28.7071 15.2929C28.8946 15.4804 29 15.7348 29 16C29 23.1797 23.1797 29 16 29C8.8203 29 3 23.1797 3 16Z" fill="#473B4A"/>
<path fill-rule="evenodd" clip-rule="evenodd" d="M14.9933 16C14.9933 15.4477 15.441 15 15.9933 15H16.0067C16.5589 15 17.0067 15.4477 17.0067 16C17.0067 16.5523 16.5589 17 16.0067 17H15.9933C15.441 17 14.9933 16.5523 14.9933 16Z" fill="#473B4A"/>
<path fill-rule="evenodd" clip-rule="evenodd" d="M18.6667 21C18.6667 20.4477 19.1144 20 19.6667 20H19.68C20.2323 20 20.68 20.4477 20.68 21C20.68 21.5523 20.2323 22 19.68 22H19.6667C19.1144 22 18.6667 21.5523 18.6667 21Z" fill="#473B4A"/>
<path fill-rule="evenodd" clip-rule="evenodd" d="M11.9763 19.0001C11.9842 19 11.9921 18.9999 12 18.9999H12.0067C12.5551 18.9999 13.0011 19.4415 13.0066 19.9899C13.0121 20.5382 12.5749 20.9887 12.0267 20.9997L12.02 20.9998L12 21H11.9933C11.441 21 10.9933 20.5523 10.9933 20C10.9933 19.4534 11.4319 19.0093 11.9763 19.0001ZM11.9933 19V19.3333L11.9867 19.0001L11.98 19.0002L11.9933 19.6667V21H12L12.0067 20.9999V19.9999M11.9933 19C11.9876 19 11.9819 19 11.9763 19.0001L11.9933 19Z" fill="#473B4A"/>
<path fill-rule="evenodd" clip-rule="evenodd" d="M8.99333 14C8.99333 13.4477 9.44105 13 9.99333 13H10.0067C10.559 13 11.0067 13.4477 11.0067 14C11.0067 14.5523 10.559 15 10.0067 15H9.99333C9.44105 15 8.99333 14.5523 8.99333 14Z" fill="#473B4A"/>
</svg>
